<svg id="Layer_2" data-name="Layer 2" xmlns="http://www.w3.org/2000/svg" viewBox="0 0 565.57 319.52"><defs><style>.cls-1{fill:#f8f8ff;}.cls-2{fill:#e9edfc;}.cls-3{fill:#e1e6fc;}.cls-4,.cls-5{fill:#bac4f6;}.cls-5,.cls-6{stroke:#fff;stroke-linecap:round;stroke-miterlimit:10;stroke-width:0.75px;}.cls-6{fill:none;}.cls-7{fill:#fff;}</style></defs><title>bg1</title><path class="cls-1" d="M1118.87,632.19s-11.94-98.5,29.85-128.35c36.39-26,66.66-41.79,128.35-43.78s95.51-2,132.33-42.78S1496,314.88,1551.67,312.81c53.73-2,86.56,14.92,117.4,134.32s-1,181.08-2,182.07C1666.38,629.91,1118.87,632.19,1118.87,632.19Z" transform="translate(-1117.29 -312.67)"/><path class="cls-2" d="M1369.28,554.28c3.39-41-9.24-101,5.5-109.35,14.55-8.23,19.51-10.92,34.61-27.65,36.81-40.79,86.56-102.41,142.28-104.47,53.73-2,86.56,14.92,117.4,134.32,15.42,59.7,14.51,91.24,13,110.09-.82,10.37-1.64,23.87-2.14,24.36C1679.24,582.29,1366.47,588.33,1369.28,554.28Z" transform="translate(-1117.29 -312.67)"/><path class="cls-3" d="M1244.67,421.93l-4.42,208.26c0,1.49,4,1,5,1h6l-.92-208.92,35.74,1-15.52-87.67a9.5,9.5,0,0,0-9.36-7.85h-24.66a12.16,12.16,0,0,0-12,10l-15.11,83.53Z" transform="translate(-1117.29 -312.67)"/><g id="Flower"><path class="cls-3" d="M1183.13,582.11s-.22,8.16,1.16,9.07a5.59,5.59,0,0,0,2,1l6.87,37.07s20.14,3.66,30.21-.46l6.87-36.62,2.29-.92.92-9.15S1208.76,573.87,1183.13,582.11Z" transform="translate(-1117.29 -312.67)"/><path class="cls-4" d="M1185.44,591.94s27,2.07,30.19,1.16,2.29-8.24,2.29-8.24l13.27-1.37s0,7.78-.92,8.7a12.69,12.69,0,0,0-2.29,4.12c0,.46-5.49,33-5.49,33s-8.7,1.37-10.07,1.37,3.66-26.95,3.66-28.84,0-5.49-1.37-5.49-27.84.79-28-2.16A4.92,4.92,0,0,0,1185.44,591.94Z" transform="translate(-1117.29 -312.67)"/><path class="cls-4" d="M1196.07,583.82s-7.53-5.29-11.53-5.77-8.64-1-12.64-1.62-9.1-2.41-9-4.75.58-3.46,2.93-4.85a15.85,15.85,0,0,1,6.57-2.43c1.76-.16,19.82,4.53,27.35,15.74l3,3.68Z" transform="translate(-1117.29 -312.67)"/><path class="cls-5" d="M1170,570.74s6.92-.09,10.71,1.14a60.75,60.75,0,0,1,8.59,4l11.33,7.89" transform="translate(-1117.29 -312.67)"/><path class="cls-4" d="M1204,583.51s-8.76-11.9-12.17-15.25-7.4-7.18-10.69-10.68-7.44-8.52-5.69-10.58,3-3.46,6.19-3a15.11,15.11,0,0,1,6.95,2.57c1.76,1.14,17.67,16.31,20,33.74l2.29,3.53Z" transform="translate(-1117.29 -312.67)"/><path class="cls-6" d="M1183.42,551s6.82,4.08,9.5,8c2.53,3.66,6.54,10.21,6.54,10.21l4.55,12.49" transform="translate(-1117.29 -312.67)"/><path class="cls-2" d="M1208.38,584.1s-10.23-22.21-12.14-26.6-9.72-11-11.45-15.48-2.83-7.74-1-10.2,6.53-4.5,9.53-3c2.83,1.38,6.51,5.58,8.09,7.71,1.26,1.68,9.63,31.85,8.94,38.81l1.6,8.91Z" transform="translate(-1117.29 -312.67)"/><path class="cls-6" d="M1190.36,537s5.87,7.56,7.65,12c2,5,4,14.53,3.74,13l6.11,20.63" transform="translate(-1117.29 -312.67)"/><path class="cls-2" d="M1202.77,583.93s-9-10.27-13.39-12.26-9.38-4.24-13.67-6.38-9.44-5.77-8.57-7.95,1.76-3.06,4.86-3.47a21.11,21.11,0,0,1,8.16.22c2,.52,20.8,11.88,25.63,25.37l2.23,4.65Z" transform="translate(-1117.29 -312.67)"/><path class="cls-6" d="M1175.44,559.2s7.79,2.56,11.66,5.18a78.78,78.78,0,0,1,8.36,7.06l8.64,12.58" transform="translate(-1117.29 -312.67)"/><path class="cls-4" d="M1226.31,584.16s8.15-5,12.48-5.51,9.34-.94,13.68-1.55,9.85-2.3,9.74-4.54-.62-3.31-3.17-4.64a18.64,18.64,0,0,0-7.11-2.32c-1.91-.15-21.45,4.32-29.6,15l-3.29,3.52Z" transform="translate(-1117.29 -312.67)"/><path class="cls-5" d="M1254.5,571.68s-7.48-.09-11.59,1.09a70,70,0,0,0-9.3,3.8l-10.87,7.3" transform="translate(-1117.29 -312.67)"/><path class="cls-4" d="M1217.72,583.87s9.47-11.36,13.17-14.56,8-6.86,11.57-10.2,8.05-8.13,6.15-10.11-3.24-3.31-6.7-2.89a17.72,17.72,0,0,0-7.52,2.45c-1.91,1.08-19.12,15.58-21.64,32.22l-2.47,3.37Z" transform="translate(-1117.29 -312.67)"/><path class="cls-6" d="M1240,552.84s-7.38,3.89-10.28,7.6c-2.74,3.5-7.07,9.75-7.07,9.75l-4.93,11.92" transform="translate(-1117.29 -312.67)"/><path class="cls-2" d="M1213,584.44s11.07-21.21,13.13-25.41,10.52-10.48,12.39-14.78,3.06-7.4,1.1-9.74-7.07-4.3-10.31-2.9c-3.06,1.32-7,5.33-8.75,7.36-1.36,1.61-10.42,30.41-9.68,37.07l-1.73,8.51Z" transform="translate(-1117.29 -312.67)"/><path class="cls-4" d="M1211.93,584.17s.89-20.7,3-27.42c1.43-4.45,2.83-12,4.7-16.25s-1-9.84-2.92-12.19-7-1.9-10.28-.51c-3.06,1.32-4.82,5.59-5.21,7.87-.35,2.08,7,27.05,6.22,36.18l.63,12.44Z" transform="translate(-1117.29 -312.67)"/><path class="cls-6" d="M1232.49,539.49s-6.35,7.22-8.28,11.45c-2.18,4.79-4.35,13.88-4,12.38l-7.19,20.2" transform="translate(-1117.29 -312.67)"/><path class="cls-2" d="M1219.06,584.28s9.79-9.81,14.49-11.71,10.15-4,14.79-6.09,10.21-5.51,9.27-7.59-1.91-2.92-5.26-3.31a25.82,25.82,0,0,0-8.83.21c-2.2.5-22.5,11.34-27.73,24.23l-2.41,4.44Z" transform="translate(-1117.29 -312.67)"/><path class="cls-6" d="M1248.64,560.65s-8.43,2.44-12.61,4.94a83.36,83.36,0,0,0-9.05,6.74l-9.54,10.58" transform="translate(-1117.29 -312.67)"/><path class="cls-6" d="M1209.91,532.22s1.7,17.73.71,22.5c-.41,2-.21,14.47-.21,14.47L1210,583" transform="translate(-1117.29 -312.67)"/></g><polygon class="cls-4" points="93 103.94 167.21 105.31 168.73 110.58 92.12 108.59 93 103.94"/><path class="cls-4" d="M1575.16,429.5l-.61,145.81,92.6.25s.67-76.79-3-150.33l-88.8-1.33Z" transform="translate(-1117.29 -312.67)"/><polygon class="cls-4" points="370.74 135.68 368.28 262.98 447.43 262.98 446.87 135.68 370.74 135.68"/><polygon class="cls-4" points="255.8 210.38 369.56 210.97 368.28 262.98 256.23 262.94 255.8 210.38"/><path class="cls-7" d="M1363.72,449.67l.28,126.25s.69,7.94,8.28,8.28,306.75.47,306.75.47,2.67-8.37,1.64-8.72-307.15-.34-307.15-.34.09-4.47.09-7.33c0-3.18-.17-122.59-.17-122.59A52.57,52.57,0,0,1,1363.72,449.67Z" transform="translate(-1117.29 -312.67)"/><polygon class="cls-7" points="253.03 149.54 555.72 151.35 557.32 157.91 253.03 159.37 253.03 149.54"/><polygon class="cls-7" points="338.44 51.23 338.44 263.2 346.43 263.82 346.43 45.7 338.44 51.23"/><polygon class="cls-7" points="483 8.58 482.82 263.2 490.2 262.59 491.35 13.55 483 8.58"/><polygon class="cls-7" points="346.43 45.7 519.18 46.75 514.21 37.8 356.26 37.72 346.43 45.7"/><circle class="cls-7" cx="375.55" cy="69.89" r="17.56"/><circle class="cls-7" cx="392.64" cy="75.54" r="11.51"/><circle class="cls-7" cx="508.76" cy="86.09" r="17.89"/><circle class="cls-7" cx="490.33" cy="88.37" r="11.72"/></svg>